<?xml version="1.0" encoding="utf-8"?>
<!-- Generator: Adobe Illustrator 19.0.1, SVG Export Plug-In . SVG Version: 6.00 Build 0)  -->
<svg version="1.1" id="Layer_1" xmlns="http://www.w3.org/2000/svg" xmlns:xlink="http://www.w3.org/1999/xlink" x="0px" y="0px"
	 viewBox="0 0 285.5 85.4" style="enable-background:new 0 0 285.5 85.4;" xml:space="preserve">
<style type="text/css">
	.st0{fill:#FFFFFF;}
	.st1{fill:#3FD5AE;}
	.st2{fill:none;stroke:#FFFFFF;stroke-width:2;stroke-miterlimit:10;}
</style>
<path class="st0" d="M48.8,55.5v8H21V22h9.4v33.5H48.8z"/>
<path class="st0" d="M69.3,64.4c-2.9,0-5.4-0.4-7.6-1.2c-2.1-0.8-3.9-2-5.2-3.4c-1.4-1.5-2.4-3.2-3.1-5.2c-0.7-2-1-4.2-1-6.7V22h9.4
	v25.1c0,1.7,0.2,3.1,0.6,4.3c0.4,1.2,0.9,2.1,1.6,2.9c0.7,0.7,1.5,1.3,2.4,1.6c0.9,0.3,2,0.5,3.1,0.5c2.3,0,4.1-0.7,5.5-2.1
	c1.4-1.4,2.1-3.8,2.1-7.1V22h9.4v25.9c0,2.4-0.3,4.7-1,6.7s-1.7,3.8-3.1,5.2c-1.4,1.5-3.2,2.6-5.3,3.4C74.8,64,72.2,64.4,69.3,64.4z
	"/>
<path class="st0" d="M120.9,63.6c-2.7-4.8-5.6-9.5-8.7-14.1c-3.1-4.6-6.4-9-10-13.1v27.2H93V22h7.6c1.3,1.3,2.8,2.9,4.4,4.9
	c1.6,1.9,3.2,4,4.9,6.2c1.7,2.2,3.3,4.4,4.9,6.8c1.6,2.3,3.2,4.6,4.6,6.8V22h9.3v41.6H120.9z"/>
<path class="st0" d="M154.9,64.4c-6.8,0-11.9-1.9-15.5-5.6c-3.5-3.8-5.3-9.1-5.3-16c0-3.4,0.5-6.5,1.6-9.2c1.1-2.7,2.6-5,4.4-6.8
	c1.9-1.9,4.1-3.3,6.7-4.2c2.6-1,5.4-1.4,8.5-1.4c1.8,0,3.4,0.1,4.8,0.4c1.4,0.3,2.7,0.6,3.8,0.9c1.1,0.3,2,0.7,2.7,1
	c0.7,0.4,1.2,0.6,1.6,0.8l-2.7,7.6c-1.3-0.7-2.8-1.3-4.5-1.7c-1.7-0.5-3.6-0.7-5.8-0.7c-1.4,0-2.9,0.2-4.2,0.7s-2.6,1.3-3.7,2.3
	c-1.1,1.1-1.9,2.4-2.6,4.1c-0.6,1.7-1,3.7-1,6.1c0,1.9,0.2,3.7,0.6,5.4c0.4,1.7,1.1,3.1,2,4.3c0.9,1.2,2.2,2.2,3.7,2.8
	c1.5,0.7,3.4,1.1,5.5,1.1c1.4,0,2.6-0.1,3.7-0.2c1.1-0.2,2-0.3,2.9-0.6c0.8-0.2,1.6-0.5,2.2-0.8c0.6-0.3,1.2-0.5,1.7-0.8l2.6,7.5
	c-1.3,0.8-3.2,1.5-5.6,2.2C160.9,64.1,158.1,64.4,154.9,64.4z"/>
<path class="st0" d="M199.9,22h9.4v41.6h-9.4V45.9h-15.7v17.6h-9.4V22h9.4v15.9h15.7V22z"/>
<path class="st1" d="M225.9,58.8c0,1.8-0.6,3.1-1.7,4.1c-1.1,1-2.4,1.4-3.9,1.4c-1.4,0-2.7-0.5-3.9-1.4s-1.7-2.3-1.7-4.1
	c0-1.8,0.6-3.1,1.7-4.1s2.4-1.4,3.9-1.4c1.4,0,2.7,0.5,3.9,1.4C225.3,55.7,225.9,57.1,225.9,58.8z"/>
<path class="st0" d="M264.5,22v8H252v33.6h-9.4V30h-12.5v-8H264.5z"/>
<rect x="1" y="1" class="st2" width="283.5" height="83.4"/>
<path class="st0" d="M225.1,32.7c0,3.2-0.1,6.3-0.4,9.1c-0.2,2.8-0.6,5.6-1,8.5h-6.8c-0.4-2.9-0.7-5.7-1-8.5
	c-0.3-2.8-0.4-5.8-0.4-9.1V22h9.5V32.7z"/>
</svg>
